<svg xmlns="http://www.w3.org/2000/svg" xmlns:xlink="http://www.w3.org/1999/xlink" width="1920.063" height="1081.275" viewBox="0 0 1920.063 1081.275"><defs><clipPath id="a"><rect width="1920.063" height="1081.275" transform="translate(0)" fill="none"/></clipPath></defs><g transform="translate(0)" clip-path="url(#a)"><rect width="6.128" height="49.277" transform="translate(96.721 452.064)" fill="#1d70b7"/><rect width="6.128" height="49.277" transform="translate(96.721 501.34)" fill="#fff"/><rect width="6.128" height="49.277" transform="translate(96.721 550.617)" fill="#969696"/><rect width="6.128" height="49.277" transform="translate(1817.151 501.34)" fill="#fff"/><rect width="6.128" height="49.277" transform="translate(1817.151 550.617)" fill="#969696"/><rect width="6.128" height="49.277" transform="translate(1817.151 452.064)" fill="#1d70b7"/><path d="M2.851,893c-103.982,0-188.275,84.293-188.275,188.275s84.293,188.274,188.275,188.274,188.274-84.293,188.274-188.274S106.832,893,2.851,893Zm0,329.683a141.408,141.408,0,1,1,141.408-141.408A141.408,141.408,0,0,1,2.851,1222.683Z" fill="#fff"/><circle cx="108.255" cy="108.255" r="108.255" transform="translate(1811.808 973.019)" fill="#fff"/></g></svg>